<svg width="376" height="546" viewBox="0 0 376 546" fill="none" xmlns="http://www.w3.org/2000/svg">
<path d="M59.605 40.9451C42.4595 -3.66423 -42.3633 -25.6931 -28.3658 63.1279C-26.0707 77.6916 -25.8398 102.769 -28.3658 133.293C-30.6797 161.255 -75.9786 176.555 -89.8838 212.685C-111.691 269.347 -30.1547 308.842 -43.1301 338.628C-60.1246 377.641 -112.161 394.567 -140.944 415.911C-168.04 436.004 -185.299 468.244 -191.926 501.39C-203.552 559.541 -182.453 620.481 -124.334 623.513C-95.2396 625.031 -56.868 612.037 -8.68011 576.918C12.8648 561.216 31.8629 548.275 48.7473 537.812C92.2048 510.881 80.5211 574.583 132.196 576.918C161.641 578.248 192.393 523.253 215.673 552.588C232.227 573.446 251.223 598.755 278.351 624.774C325.992 670.469 385.556 677.196 393.981 611.981C397.958 581.196 390.54 534.379 365.091 468.061C348.806 425.622 389.314 427.118 393.981 372.733C398.649 318.349 360.483 293.268 388.111 270.76L388.664 270.309C409.723 253.154 432.183 234.858 444.449 199.717C455.015 169.446 454.006 139.465 444.449 116.428C434.222 91.7724 414.205 75.0702 388.111 74.4778C361.929 73.8833 329.629 89.5075 294.961 129.59C272.103 156.017 256.624 94.5252 215.673 100.811C174.723 107.097 169.032 166.428 144.5 149.22C101.886 119.327 79.6853 93.1904 59.605 40.9451Z" stroke="white" stroke-opacity="0.7" stroke-width="3"/>
<path d="M142.319 284.279C139.71 277.43 127.549 279.228 126.934 286.65C126.233 295.1 130.505 306.112 130.011 314.583C129.058 330.938 123.28 335.593 111.775 344.213C107.652 347.298 105.025 352.247 104.017 357.336C102.247 366.263 105.458 375.618 114.303 376.084C118.731 376.317 124.571 374.322 131.904 368.931C135.183 366.52 138.074 364.534 140.644 362.927C151.83 355.375 162.24 361.293 166.047 365.196C168.567 368.398 171.457 372.283 175.586 376.277C182.836 383.292 193.816 382.373 193.183 374.313C192.29 362.927 172.85 320.426 193.183 313.015C202.628 309.572 202.318 301.774 200.864 298.238C199.307 294.453 196.261 291.889 192.29 291.798C188.305 291.706 181.705 298.238 178.114 300.258C164.858 307.718 153.029 311.573 142.319 284.279Z" stroke="white" stroke-opacity="0.7" stroke-width="3"/>
<path d="M-14.1829 82.5608C-26.6058 1.70281 50.9083 21.859 66.6272 62.7544C85.872 112.751 107.148 136.183 147.127 162.707C169.611 178.272 175.021 124.098 212.517 118.21C250.013 112.322 264.338 168.123 285.317 144.083C317.222 107.624 346.888 93.6402 370.852 94.5226C394.66 95.2212 412.913 110.673 422.135 133.359C430.747 154.574 431.457 182.105 421.414 209.801C408.307 242.722 389.378 263.213 370.153 279.968C345.044 300.81 379.535 323.832 374.963 373.344C370.392 422.856 333.119 421.358 347.608 459.654C370.387 519.63 376.874 561.875 373.027 589.595C365.188 648.753 310.668 642.41 266.913 600.744C241.823 576.979 224.048 553.99 208.478 535.353C187.062 508.809 158.818 559.023 131.729 558.03C84.3775 556.15 94.7086 498.359 54.9012 522.964C39.272 532.587 21.7526 544.4 1.94807 558.676C-42.7014 590.586 -77.9068 601.564 -104.218 599.378C-157.054 596.39 -176.168 540.719 -165.472 487.608C-159.324 457.247 -143.467 427.734 -118.625 409.313C-91.3902 389.117 -43.5181 373.296 -27.9684 336.326C-16.14 308.844 -90.4141 272.472 -70.6555 220.48C-58.087 187.169 -16.9519 172.81 -14.8146 146.988C-12.4883 118.882 -12.4078 95.8581 -14.1829 82.5608Z" stroke="white" stroke-opacity="0.7" stroke-width="3"/>
<path d="M0.635056 102.812C-10.1948 30.1824 59.8972 48.3997 74.1665 85.4463C92.5479 133.025 112.868 153.676 150.154 176.746C170.558 190.617 175.679 141.779 209.666 136.308C243.652 130.838 256.802 180.765 275.871 159.192C304.966 126.475 331.955 114.177 353.666 115.343C375.154 116.145 391.617 130.295 399.82 150.938C407.473 170.26 407.884 195.25 398.378 220.28C384.555 250.564 369.473 273.164 352.27 289.33C329.716 308.437 360.481 329.323 356.012 373.801C351.543 418.28 317.561 416.783 330.231 450.811C350.308 504.25 355.854 541.784 352.141 566.349C344.9 619.256 295.505 613.32 255.7 575.819C232.684 554.386 216.156 533.791 201.592 517.437C182.071 493.77 156.377 539.039 131.683 538.387C88.7246 536.965 97.688 485.275 61.5888 507.474C47.2376 516.225 31.2225 526.872 13.1872 539.674C-27.8587 568.271 -59.8466 577.198 -83.3363 574.352C-130.811 571.418 -147.913 521.199 -138.162 473.304C-132.502 445.828 -118.07 419.138 -95.5195 402.451C-69.8715 383.469 -26.2335 368.808 -12.1515 334.005C-1.48732 308.917 -68.3902 275.787 -50.7095 228.638C-39.4962 198.256 -2.58504 184.885 -0.627548 161.29C1.49573 135.694 1.88745 114.8 0.635056 102.812Z" stroke="white" stroke-opacity="0.7" stroke-width="3"/>
<path d="M14.8138 122.246C5.56034 57.5796 68.3383 73.9241 81.1802 107.257C98.7269 152.586 118.123 170.532 152.774 190.233C171.129 202.461 175.969 158.781 206.499 153.708C237.029 148.635 249.024 192.872 266.213 173.686C292.543 144.592 316.897 133.934 336.388 135.389C355.589 136.297 370.286 149.196 377.482 167.87C384.19 185.368 384.302 207.908 375.318 230.364C360.757 258.119 349.499 282.902 334.291 298.536C314.258 315.977 341.345 334.803 336.971 374.409C332.597 414.015 301.854 412.517 312.724 442.4C330.129 489.499 334.742 522.46 331.159 543.96C324.504 590.81 280.157 585.259 244.241 551.787C223.264 532.608 207.957 514.332 194.376 500.199C176.721 479.323 153.537 519.812 131.2 519.496C92.5677 518.529 100.177 472.75 67.7303 492.624C54.6349 500.534 40.0993 510.054 23.8054 521.429C-13.7007 546.817 -42.5203 553.729 -63.2245 550.214C-105.411 547.324 -120.527 502.375 -111.706 459.52C-106.526 434.83 -93.4969 410.865 -73.2021 395.852C-49.1013 378.017 -9.6299 364.463 3.00616 331.702C12.5226 308.919 -47.1121 278.912 -31.4822 236.433C-21.6068 208.87 11.1372 196.441 12.9179 174.985C14.8414 151.808 15.5452 132.967 14.8138 122.246Z" stroke="white" stroke-opacity="0.7" stroke-width="3"/>
<path d="M29.6258 141.679C21.9654 84.9782 77.3179 99.4496 88.7095 129.067C105.391 172.151 123.829 187.39 155.784 203.72C172.057 214.305 176.608 175.784 203.627 171.109C230.646 166.433 241.465 204.977 256.743 188.179C280.262 162.709 301.937 153.693 319.174 155.436C336.053 156.451 348.959 168.099 355.136 184.804C360.886 200.479 360.698 220.568 352.253 240.449C336.979 265.676 329.565 292.649 316.38 307.753C298.903 323.528 322.264 340.295 317.993 375.027C313.722 409.76 286.271 408.258 295.322 433.996C310.025 474.751 313.697 503.138 310.248 521.571C304.191 562.361 264.972 557.195 233.009 527.752C214.107 510.828 200.048 494.873 187.474 482.963C171.716 464.878 151.083 500.585 131.143 500.608C96.9057 500.095 103.147 460.229 74.4107 477.777C62.5941 484.847 49.5639 493.239 35.0403 503.187C1.14045 525.364 -24.4599 530.258 -42.3416 526.074C-79.1648 523.227 -92.2684 483.549 -84.3935 445.735C-79.7018 423.831 -68.0985 402.594 -50.0957 389.254C-27.5844 372.565 7.65035 360.117 18.8181 329.397C27.1697 308.919 -25.0908 282.034 -11.5393 244.227C-3.01954 219.483 25.499 207.994 27.0998 188.679C28.8201 167.92 29.8348 151.133 29.6258 141.679Z" stroke="white" stroke-opacity="0.7" stroke-width="3"/>
<path d="M44.4309 162.027C38.3629 113.418 86.2884 125.984 96.2293 151.821C112.042 192.561 129.52 205.06 158.775 217.983C172.966 226.9 177.227 193.624 200.734 189.357C224.241 185.091 233.883 217.856 247.25 203.483C267.957 181.694 286.951 174.339 301.934 176.367C316.491 177.485 327.606 187.857 332.764 202.555C337.556 216.372 337.069 233.966 329.163 251.227C313.181 273.869 309.608 302.97 298.445 317.51C283.525 331.582 303.159 346.252 298.992 376.033C294.825 405.815 270.668 404.314 277.901 425.849C289.901 460.169 292.633 483.918 289.321 499.243C283.863 533.883 249.771 529.114 221.762 503.767C204.938 489.135 192.128 475.535 180.562 465.875C166.702 450.622 148.621 481.468 131.078 481.828C101.238 481.77 106.112 447.907 81.0867 463.089C70.5499 469.303 59.0256 476.549 46.273 485.048C15.9819 503.965 -6.39808 506.831 -21.4577 501.986C-52.9176 499.19 -64.0084 464.871 -57.0798 432.183C-52.877 413.114 -42.7001 394.652 -26.99 383.014C-6.07125 367.51 24.9251 356.196 34.6242 327.587C41.8109 309.458 -3.07468 285.756 8.39834 252.705C15.5627 230.837 39.8558 220.314 41.2766 203.183C42.7936 184.889 44.1184 170.193 44.4309 162.027Z" stroke="white" stroke-opacity="0.7" stroke-width="3"/>
<path d="M58.5955 181.46C54.1072 140.821 94.7055 151.513 103.216 173.634C118.194 212.132 134.747 221.922 161.364 231.471C173.503 238.744 177.482 210.629 197.526 206.76C217.57 202.89 226.055 229.959 237.54 217.977C255.476 199.814 271.831 194.101 284.59 196.418C296.856 197.644 306.202 206.765 310.351 219.493C314.195 231.486 313.408 246.628 306.025 261.313C289.302 281.428 289.563 312.728 280.399 326.739C268.004 339.146 283.953 351.755 279.881 376.66C275.809 401.566 254.896 400.062 260.326 417.448C269.649 445.421 271.446 464.592 268.262 476.848C263.391 505.424 234.357 501.04 210.244 479.725C195.462 467.349 183.875 456.071 173.293 448.635C161.302 436.175 145.736 462.237 130.553 462.936C105.047 463.333 108.564 435.388 87.1979 448.243C77.9189 453.615 67.8766 459.733 56.8685 466.804C30.1229 482.51 10.9167 483.355 -1.35204 477.838C-27.5139 475.084 -36.6151 446.038 -30.6184 418.395C-26.8956 402.113 -18.124 386.378 -4.67385 376.415C14.6961 362.056 41.5186 351.847 49.7691 325.277C55.806 309.453 18.202 288.875 27.6204 260.497C33.4442 241.448 53.5623 231.865 54.806 216.876C56.1229 201 57.7607 188.359 58.5955 181.46Z" stroke="white" stroke-opacity="0.7" stroke-width="3"/>
<path d="M73.3835 200.892C70.4864 168.229 103.65 177.046 110.709 195.449C124.811 231.713 140.395 238.791 164.302 244.96C174.356 250.586 178.043 227.637 194.571 224.165C211.099 220.693 218.405 242.06 227.976 232.469C243.095 217.935 256.766 213.867 267.268 216.475C277.21 217.808 284.763 225.678 287.893 236.437C290.779 246.606 289.695 259.295 282.855 271.402C265.436 288.99 269.527 322.507 262.386 335.993C252.549 346.733 264.772 357.282 260.806 377.307C256.84 397.332 239.226 395.825 242.839 409.058C249.46 430.676 250.318 445.264 247.272 454.448C243.002 476.956 219.102 472.955 198.948 455.675C186.247 445.556 175.914 436.601 166.345 431.394C156.254 421.73 143.244 443.005 130.462 444.044C109.358 444.897 111.509 422.874 93.8586 433.4C85.8621 437.932 77.3285 442.921 68.0939 448.563C44.9651 461.054 28.9836 459.873 19.5378 453.68C-1.2572 450.969 -8.34494 427.2 -3.29597 404.604C-0.0632634 391.11 7.27977 378.105 18.4344 369.816C36.2034 356.6 58.781 347.496 65.5612 322.961C70.4322 309.442 40.2088 291.988 47.5479 268.285C52.016 252.057 67.9063 243.413 68.9696 230.564C70.0829 217.108 72.029 206.523 73.3835 200.892Z" stroke="white" stroke-opacity="0.7" stroke-width="3"/>
<path d="M87.7558 220.322C86.4369 195.646 112.345 202.586 117.989 217.268C131.299 251.309 146.004 255.67 167.338 258.451C175.362 262.428 178.778 244.649 191.88 241.574C204.982 238.498 211.149 254.156 218.858 246.959C231.244 236.059 242.306 233.64 250.607 236.541C258.279 237.983 264.079 244.602 266.206 253.389C268.149 261.733 266.76 271.969 260.423 281.496C242.202 296.556 250.159 332.315 245.004 345.283C237.673 354.356 246.231 362.842 242.348 377.981C238.464 393.12 224.053 391.608 225.865 400.681C229.818 415.934 229.74 425.931 226.813 432.037C223.119 448.466 204.224 444.849 187.919 431.608C177.229 423.749 168.091 417.121 159.48 414.147C151.234 407.284 140.708 423.766 130.258 425.146C113.44 426.458 114.235 410.367 100.204 418.562L99.8136 418.775C93.1732 422.4 86.2289 426.192 78.8619 430.322C59.2208 439.593 46.3767 436.379 39.705 429.505C24.1666 426.834 19.0553 408.347 23.1843 390.804C25.945 380.101 31.8997 369.828 40.8196 363.215C57.0901 351.139 75.5467 343.14 80.8933 320.633C84.6245 309.42 61.6205 295.091 66.9186 276.067C70.0541 262.661 81.8003 254.954 82.6892 244.248C83.605 233.212 85.872 224.684 87.7558 220.322Z" stroke="white" stroke-opacity="0.7" stroke-width="3"/>
<path d="M102.508 240.695C102.779 224.113 121.23 229.146 125.416 240.042C137.833 271.707 151.549 273.332 170.148 272.713C176.079 275.024 179.199 262.494 188.773 259.829C198.347 257.164 203.328 267.044 209.116 262.273C218.672 255.055 227.04 254.294 233.076 257.476C238.417 259.019 242.419 264.358 243.526 271.135C244.51 277.617 242.825 285.353 237.039 292.257C218.151 304.723 229.92 342.561 226.791 354.95C222.024 362.317 226.85 368.702 223.078 378.889C219.306 389.075 208.209 387.566 208.205 392.439C209.456 401.26 208.44 406.623 205.655 409.624C202.565 419.903 188.822 416.686 176.493 407.542C167.895 401.978 160.022 397.706 152.434 396.977C146.097 392.944 138.137 404.562 130.098 406.277C117.698 408.041 117.129 397.952 106.826 403.779C101.358 406.611 95.8016 409.323 90.0711 412.085C74.0683 418.096 64.4612 412.864 60.6167 405.34C50.4574 402.723 47.3632 389.599 50.5402 377.186C52.8079 369.322 57.3282 361.826 63.944 356.918C78.5932 346.037 92.7863 339.178 96.6577 318.801C99.2199 309.944 83.6157 298.805 86.8308 284.544C88.6086 274.018 96.1179 267.285 96.8255 258.767C97.5368 250.201 100.108 243.768 102.508 240.695Z" stroke="white" stroke-opacity="0.7" stroke-width="3"/>
<path d="M117.479 260.152C119.333 251.607 130.384 254.749 133.125 261.892C144.668 291.252 157.418 290.152 173.318 286.144C177.174 286.797 180.003 279.476 186.078 277.214C192.153 274.953 195.96 279.092 199.843 276.731C206.595 273.168 212.292 274.06 216.081 277.527C219.11 279.175 221.328 283.249 221.42 288.035C221.452 292.673 219.471 297.933 214.226 302.237C194.649 312.142 210.226 352.129 209.111 363.967C206.889 369.647 208.007 373.951 204.341 379.221C200.676 384.49 192.862 382.98 191.05 383.676C189.614 386.104 187.664 386.857 185.017 386.768C182.524 390.938 173.891 388.112 165.503 383.035C158.977 379.747 152.352 377.815 145.774 379.323C141.328 378.105 135.912 384.896 130.263 386.948C122.244 389.167 120.316 385.04 113.711 388.52C109.519 390.502 105.465 392.076 101.5 393.398C89.0979 396.171 82.7002 388.917 81.6646 380.73C76.8457 378.16 75.755 370.357 77.9887 363.033C79.7685 357.983 82.8669 353.241 87.198 350.023C100.252 340.311 110.22 334.574 112.628 316.28C114.03 309.753 105.77 301.771 106.917 292.23C107.345 284.556 110.648 278.778 111.176 272.426C111.684 266.304 114.562 261.946 117.479 260.152Z" stroke="white" stroke-opacity="0.7" stroke-width="3"/>
</svg>
